<svg width="24" height="24" viewBox="0 0 24 24" fill="none" xmlns="http://www.w3.org/2000/svg">
<g clip-path="url(#clip0_2604_103)">
<path d="M13.8863 21.6488C16.02 23.7825 19.5132 23.7825 21.6488 21.6488C23.7825 19.515 23.7825 16.0219 21.6488 13.8863L15.8813 8.11877L8.11877 15.8813L13.8863 21.6488Z" fill="#F44336"/>
<path d="M15.8812 8.11879L10.1137 2.35129C7.97998 0.217539 4.48685 0.217539 2.35123 2.35129C0.217478 4.48504 0.217478 7.97816 2.35123 10.1138L8.11873 15.8813L15.8812 8.11879Z" fill="#FDD835"/>
<path d="M16.2787 8.51719L8.51622 16.2797L8.11835 15.882L15.8808 8.11951L16.2787 8.51719Z" fill="#C62828"/>
<g opacity="0.65">
<path d="M13.0181 6.79684C15.2981 9.28122 19.4344 13.9687 19.4344 13.9687C19.9706 14.4581 20.7075 15.72 20.2256 16.155C19.7119 16.62 18.5156 15.6393 17.9794 15.15L9.22875 6.91684C8.69438 6.42747 6.90563 4.84309 7.25438 3.72747C7.9125 1.62184 10.4794 4.02934 13.0181 6.79684Z" fill="white"/>
</g>
</g>
<defs>
<clipPath id="clip0_2604_103">
<rect width="24" height="24" fill="white"/>
</clipPath>
</defs>
</svg>
