<svg width="24" height="24" viewBox="0 0 24 24" fill="none" xmlns="http://www.w3.org/2000/svg">
<g clip-path="url(#clip0_2604_109)">
<path d="M24 12C24 18.6277 18.6269 24 12 24C5.3727 24 0 18.6277 0 12C0 5.37233 5.3727 0 12 0C18.6269 0 24 5.37233 24 12Z" fill="#ED5564"/>
<g opacity="0.2">
<path d="M12 0C11.663 0 11.3298 0.0139222 10.9999 0.0410166C17.1591 0.549341 22.0004 5.70923 22.0004 12C22.0004 18.2907 17.1591 23.4507 10.9999 23.959C11.3298 23.9861 11.6631 24 12 24C18.6269 24 24 18.6277 24 12C24 5.37233 18.6269 0 12 0Z" fill="white"/>
</g>
<path d="M6.28895 12.1699C6.20144 10.9299 6.64929 10.6882 7.32792 10.3227C7.96988 9.97707 8.84876 9.5032 8.88392 8.01198C8.91214 6.80783 8.08154 5.4412 6.41603 3.94848C5.74988 3.35156 5.08705 2.85786 4.62415 2.53418C4.35171 2.74658 4.08873 2.97069 3.83569 3.20577C4.26344 3.49584 5.00975 4.03121 5.7488 4.69329C7.16643 5.96335 7.90468 7.10296 7.88419 7.9885C7.86258 8.89892 7.46123 9.11497 6.8533 9.44236C6.13811 9.82834 5.15849 10.3564 5.29143 12.2403C5.35003 13.0693 5.78325 13.7901 6.57902 14.3811C7.16535 14.8169 7.95343 15.1824 8.92241 15.4687C10.5301 15.9441 12.0854 16.0422 12.151 16.0459L12.211 15.0476C12.196 15.0468 10.6909 14.9509 9.19124 14.5056C7.91565 14.1269 6.37685 13.4143 6.28895 12.1699Z" fill="#EAC6BB"/>
<path d="M17.1467 12.2234L15.0147 8.73338C14.9941 8.69531 14.9707 8.65866 14.9458 8.625L14.1181 9.18461L14.1299 9.20439C14.1592 9.34422 14.0383 9.89797 13.5483 10.5645C13.0276 11.272 12.3996 11.6946 11.8675 11.6946C11.8437 11.6946 11.8195 11.6938 11.7957 11.6917L9.65043 10.8596L8.68108 12.5377L10.2693 14.0596C9.66801 14.6682 9.44024 15.3831 9.30655 15.8028C9.29408 15.8409 9.28053 15.8841 9.26811 15.9215C9.20989 15.9405 9.185 15.942 9.17839 15.942C9.16189 15.9391 9.10517 15.9127 9.06378 15.8937C8.89493 15.816 8.63969 15.6981 8.18195 15.6483C8.13615 15.6432 8.08927 15.641 8.04277 15.641C7.5352 15.641 6.99725 15.9318 6.44354 16.506C6.07144 16.8919 5.81916 17.2757 5.80851 17.2919L5.59467 17.6186L7.25216 19.4093L8.22043 18.9889C9.09969 19.9213 10.1928 20.4112 11.4028 20.4112C12.4714 20.4112 13.5872 20.0326 14.6302 19.3163C15.5926 18.6549 16.4269 17.7416 16.9776 16.744C17.8718 15.1259 17.934 13.4779 17.1467 12.2234Z" fill="#DBADA2"/>
<path d="M15.3267 3.65039C12.7273 3.65039 10.6124 5.76563 10.6124 8.36575C10.6124 10.9651 12.7273 13.0803 15.3267 13.0803C17.9267 13.0803 20.042 10.9651 20.042 8.36575C20.042 5.76563 17.9267 3.65039 15.3267 3.65039Z" fill="#EAC6BB"/>
</g>
<defs>
<clipPath id="clip0_2604_109">
<rect width="24" height="24" fill="white"/>
</clipPath>
</defs>
</svg>
