<svg width="24" height="24" viewBox="0 0 24 24" fill="none" xmlns="http://www.w3.org/2000/svg">
<path d="M8.97082 0.447351C8.97082 0.447351 3.98908 -0.626071 2.14674 0.886572C0.304403 2.39921 0.210772 4.18483 0.0262625 5.28494C-0.158247 6.38504 0.670668 8.72071 1.2242 9.75103C1.77772 10.7813 2.70027 12.4992 2.60664 13.7369C2.513 14.9745 2.81593 18.1598 2.97565 18.8905C3.33641 20.5407 5.00525 23.5639 6.75671 23.9067C8.50817 24.2494 9.0617 23.6316 9.0617 22.3263C9.0617 21.0209 9.61523 13.5993 12.7491 13.8744C15.883 14.1473 15.6985 16.8955 15.7922 18.2707C15.883 19.6458 16.723 24.1016 18.2899 23.9641C19.8569 23.8266 21.7846 20.7439 21.8782 18.1332C21.9718 15.5225 21.0493 14.3546 21.8782 12.3617C22.7071 10.3688 23.9987 8.44568 23.9987 6.38299C23.9987 4.78209 24.1226 2.16113 21.9691 0.886572C20.0138 -0.271 18.6369 0.0224977 17.6345 0.061494C15.134 0.160011 13.7515 1.47562 8.97082 0.447351Z" fill="#F5F1E7"/>
<path d="M12.8676 3.80108C14.0462 3.80108 18.3285 2.25355 17.8245 1.85948C17.0562 1.25812 13.7653 2.60452 12.5371 2.545C11.2538 2.48342 9.92919 2.09346 8.68995 1.99289C8.2631 1.958 7.71508 2.06062 8.18048 2.46906C8.51921 2.76461 11.6889 3.80108 12.8676 3.80108Z" fill="white"/>
<path d="M8.19149 3.82358C8.81387 4.13144 9.43349 4.51935 9.62901 5.05709C9.65655 5.13303 9.67583 5.21513 9.64003 5.29107C9.60698 5.3588 9.53263 5.41216 9.45552 5.45526C9.08375 5.6605 8.60182 5.71387 8.13917 5.71797C6.83108 5.72823 5.523 5.38548 4.51233 4.76769C3.87343 4.37773 2.42765 2.81173 4.05794 2.65369C5.40734 2.52028 7.12299 3.29815 8.19149 3.82358Z" fill="white"/>
<path d="M19.4217 3.03955C19.7274 2.96772 20.0854 2.91025 20.3498 3.04571C20.471 3.10728 20.5536 3.20375 20.6114 3.30432C20.8262 3.67581 20.7216 4.11913 20.4462 4.46805C20.1708 4.81696 19.7412 5.08378 19.2951 5.3157C18.6259 5.66051 17.8823 5.93964 17.0837 6.05252C16.2851 6.16541 15.4231 6.09768 14.7209 5.79187C14.63 5.75287 14.5391 5.70566 14.4896 5.63793C14.3822 5.48811 14.5171 5.30339 14.6879 5.19256C16.0923 4.28743 17.6317 3.46441 19.4217 3.03955Z" fill="white"/>
</svg>
